<svg
  width="37"
  height="37"
  viewBox="0 0 37 37"
  fill="none"
  xmlns="http://www.w3.org/2000/svg"
>
  <rect
    x="37"
    y="37.0002"
    width="37"
    height="37"
    rx="5"
    transform="rotate(180 37 37.0002)"
    fill="url(#paint0_linear_844_266)"
  />
  <path
    d="M22.9064 18.8228C22.9198 18.5369 22.9366 18.2512 22.9568 17.9621C23.1451 15.5345 23.6731 12.9189 24.5706 9.99023C22.7483 11.1469 21.2387 12.8244 20.23 14.7475C20.5293 16.2942 20.5426 17.9181 20.2535 19.4612C19.9172 21.2464 19.4263 22.8839 18.7607 24.4338C19.0567 25.4155 19.3053 26.4512 19.5004 27.5403C19.8937 25.3482 20.4922 23.3646 21.2957 21.6296C21.7633 20.6148 22.3046 19.6768 22.9064 18.8226L22.9064 18.8228Z"
    fill="white"
  />
  <path
    d="M16.2919 14.748C16.1709 15.9584 15.922 17.0914 15.5623 18.1134C16.386 19.1456 17.1054 20.3224 17.7073 21.6301C17.9594 22.1747 18.188 22.7429 18.3998 23.3346C18.8806 22.0771 19.2504 20.7493 19.5194 19.3236C19.98 16.8726 19.627 14.2199 18.5477 12.0446C17.6971 10.3232 16.3927 8.90429 14.8662 8C15.9994 9.97375 16.524 12.4013 16.2919 14.7477V14.748Z"
    fill="white"
  />
  <path
    d="M12.7759 23.1835C11.6059 22.7733 10.3249 22.6894 9.10449 22.9246C10.5536 23.4187 11.8414 24.3803 12.7054 25.6446C13.5056 26.8146 13.9964 28.0621 14.1376 29.2556H14.6486C14.5142 27.8468 14.151 25.722 13.1962 23.3517C13.0583 23.2879 12.9172 23.234 12.776 23.1835L12.7759 23.1835Z"
    fill="white"
  />
  <path
    d="M13.4181 16.9298C11.0377 14.7982 8.53973 14.1427 7 13.9543C9.70309 16.059 11.8145 18.6479 13.2872 21.6638C14.706 24.5686 15.234 27.2584 15.4054 29.252H19.003C18.3069 23.7686 16.4307 19.6267 13.4182 16.9298L13.4181 16.9298Z"
    fill="white"
  />
  <path
    d="M26.2245 23.1835C24.6241 23.7482 23.239 24.9251 22.4252 26.4113C21.9142 27.3493 21.5209 28.2872 21.2383 29.2523H24.8626C25.0038 28.0588 25.4946 26.8113 26.2948 25.6413C27.1588 24.3772 28.4499 23.4157 29.8957 22.9213C28.6787 22.686 27.3945 22.77 26.2245 23.1834V23.1835Z"
    fill="white"
  />
  <path
    d="M25.5816 16.9298C22.5691 19.6264 20.6929 23.7687 19.9971 29.252H20.4577C20.7569 28.1594 21.1906 27.1036 21.7656 26.0513C22.5323 24.6493 23.7593 23.4961 25.1983 22.8001C25.3564 22.427 25.5246 22.047 25.7126 21.6636C27.1852 18.6479 29.2966 16.0589 31.9998 13.9541C30.46 14.1424 27.962 14.7979 25.5818 16.9295L25.5816 16.9298Z"
    fill="white"
  />
  <defs>
    <linearGradient
      id="paint0_linear_844_266"
      x1="74"
      y1="74.0002"
      x2="37"
      y2="37.0002"
      gradientUnits="userSpaceOnUse"
    >
      <stop stop-color="#0033E8" />
      <stop offset="1" stop-color="#FF33DE" />
    </linearGradient>
  </defs>
</svg>
